ModelForces
version=1
nRows=4
nColumns=158
inDegrees=no

This file contains the forces exerted on a model during a simulation.

A force is a generalized force, meaning that it can be either a force (N) or a torque (Nm).

Units are S.I. units (second, meters, Newtons, ...)
Angles are in degrees.

endheader
time	glut_med1_r	glut_med2_r	glut_med3_r	glut_min1_r	glut_min2_r	glut_min3_r	semimem_r	semiten_r	bifemlh_r	bifemsh_r	sar_r	add_long_r	add_brev_r	add_mag1_r	add_mag2_r	add_mag3_r	tfl_r	pect_r	grac_r	glut_max1_r	glut_max2_r	glut_max3_r	iliacus_r	psoas_r	quad_fem_r	gem_r	peri_r	rect_fem_r	vas_med_r	vas_int_r	vas_lat_r	med_gas_r	lat_gas_r	soleus_r	tib_post_r	flex_dig_r	flex_hal_r	tib_ant_r	per_brev_r	per_long_r	per_tert_r	ext_dig_r	ext_hal_r	glut_med1_l	glut_med2_l	glut_med3_l	glut_min1_l	glut_min2_l	glut_min3_l	semimem_l	semiten_l	bifemlh_l	bifemsh_l	sar_l	add_long_l	add_brev_l	add_mag1_l	add_mag2_l	add_mag3_l	tfl_l	pect_l	grac_l	glut_max1_l	glut_max2_l	glut_max3_l	iliacus_l	psoas_l	quad_fem_l	gem_l	peri_l	rect_fem_l	vas_med_l	vas_int_l	vas_lat_l	med_gas_l	lat_gas_l	soleus_l	tib_post_l	flex_dig_l	flex_hal_l	tib_ant_l	per_brev_l	per_long_l	per_tert_l	ext_dig_l	ext_hal_l	ercspn_r	ercspn_l	intobl_r	intobl_l	extobl_r	extobl_l	femur_lat_meniscii_r.femur_lat_r.force.X	femur_lat_meniscii_r.femur_lat_r.force.Y	femur_lat_meniscii_r.femur_lat_r.force.Z	femur_lat_meniscii_r.femur_lat_r.torque.X	femur_lat_meniscii_r.femur_lat_r.torque.Y	femur_lat_meniscii_r.femur_lat_r.torque.Z	femur_lat_meniscii_r.meniscus_lat_r.force.X	femur_lat_meniscii_r.meniscus_lat_r.force.Y	femur_lat_meniscii_r.meniscus_lat_r.force.Z	femur_lat_meniscii_r.meniscus_lat_r.torque.X	femur_lat_meniscii_r.meniscus_lat_r.torque.Y	femur_lat_meniscii_r.meniscus_lat_r.torque.Z	femur_med_meniscii_r.femur_med_r.force.X	femur_med_meniscii_r.femur_med_r.force.Y	femur_med_meniscii_r.femur_med_r.force.Z	femur_med_meniscii_r.femur_med_r.torque.X	femur_med_meniscii_r.femur_med_r.torque.Y	femur_med_meniscii_r.femur_med_r.torque.Z	femur_med_meniscii_r.meniscus_med_r.force.X	femur_med_meniscii_r.meniscus_med_r.force.Y	femur_med_meniscii_r.meniscus_med_r.force.Z	femur_med_meniscii_r.meniscus_med_r.torque.X	femur_med_meniscii_r.meniscus_med_r.torque.Y	femur_med_meniscii_r.meniscus_med_r.torque.Z	femur_med_tibia_r.tibia_upper_r.force.X	femur_med_tibia_r.tibia_upper_r.force.Y	femur_med_tibia_r.tibia_upper_r.force.Z	femur_med_tibia_r.tibia_upper_r.torque.X	femur_med_tibia_r.tibia_upper_r.torque.Y	femur_med_tibia_r.tibia_upper_r.torque.Z	femur_med_tibia_r.femur_med_r.force.X	femur_med_tibia_r.femur_med_r.force.Y	femur_med_tibia_r.femur_med_r.force.Z	femur_med_tibia_r.femur_med_r.torque.X	femur_med_tibia_r.femur_med_r.torque.Y	femur_med_tibia_r.femur_med_r.torque.Z	femur_lat_tibia_r.tibia_upper_r.force.X	femur_lat_tibia_r.tibia_upper_r.force.Y	femur_lat_tibia_r.tibia_upper_r.force.Z	femur_lat_tibia_r.tibia_upper_r.torque.X	femur_lat_tibia_r.tibia_upper_r.torque.Y	femur_lat_tibia_r.tibia_upper_r.torque.Z	femur_lat_tibia_r.femur_lat_r.force.X	femur_lat_tibia_r.femur_lat_r.force.Y	femur_lat_tibia_r.femur_lat_r.force.Z	femur_lat_tibia_r.femur_lat_r.torque.X	femur_lat_tibia_r.femur_lat_r.torque.Y	femur_lat_tibia_r.femur_lat_r.torque.Z	aACL_R	pACL_R	aPCL_R	pPCL_R	aMCL_R	mMCL_R	pMCL_R	aLCL_R	mLCL_R	pLCL_R	aPCL_L	pPCL_L	aMCL_L	aLCL_L	ground_prescribedForce_-60_fx	ground_prescribedForce_-60_fy	ground_prescribedForce_-60_fz
      0.72268924	      7.54838904	      5.66605522	      6.06504333	      2.65907071	      3.17909239	      3.19292682	      0.00000000	      3.59965563	      4.15067968	      5.70063497	      1.50821098	      5.61358375	      4.14126955	      2.91907822	      2.45385555	      3.98768708	      3.01850889	      2.23882820	      1.45596913	      3.65626878	      5.55630041	      4.14764214	     22.64815190	     12.96747267	      3.62686242	      2.85440529	      4.09049345	     58.37621841	     12.97606109	     13.64925027	     18.41395269	      0.00000000	      0.00000000	     11.63821565	     14.61130440	      2.56851211	      3.27857140	     12.66046010	      3.49214403	      7.40311171	      9.77853737	      8.55235537	      1.85634330	      7.54838904	      5.66605522	      6.06504333	      2.65907071	      3.17909239	      3.19292682	      8.74589071	      4.08346936	      7.68343337	      7.21639538	      1.51981996	      5.61358375	      4.14126955	      2.91907822	      2.45385555	      3.98768708	      4.09716345	      2.23882820	      1.55878234	      3.65626878	      5.55630041	      4.14764214	     22.64815190	     12.96747267	      3.62686242	      2.85440529	      4.09049345	     10.66795655	      6.59304268	      7.56275525	      8.13200303	     13.95563399	      6.47992467	     31.09043407	     42.36080468	      2.60057398	      2.84811406	      8.45238981	      4.33440469	     12.44768677	      2.00598063	      5.35430295	      1.69990176	     25.00786211	     25.00786211	      9.00064936	      9.00064936	     26.80519238	     26.80519238	    168.51171370	     92.51683150	     28.79602926	    -14.00529407	      4.20203578	     68.85820687	   -168.51171370	    -92.51683150	    -28.79602926	      3.15630650	     -5.68340472	     -0.61153891	    130.66111989	     16.99047156	    -10.60793141	      4.64489874	     -2.62289475	     53.11490874	   -130.66111989	    -16.99047156	     10.60793141	     -0.40718227	      2.25855053	     -1.50122657	   -130.36958632	    -58.52023448	      9.93663970	     -0.91796120	      1.92406388	     -0.70767838	    130.36958632	     58.52023448	     -9.93663970	      5.08867488	     -2.30301666	     53.19602727	      0.00000000	      0.00000000	      0.00000000	      0.00000000	      0.00000000	      0.00000000	      0.00000000	      0.00000000	      0.00000000	      0.00000000	      0.00000000	      0.00000000	     80.55480794	     18.97711393	    295.61622285	     57.38497724	      5.42520120	      1.72994861	      0.00000000	      0.00000000	      0.00000000	      0.00000000	      0.00000000	      0.00000000	      0.00000001	      0.00000000	     55.00000000	    -95.26270000	      0.00000000
      0.72584494	      7.54827484	      5.66597652	      6.06495805	      2.65903534	      3.17905414	      3.19287861	      0.00000000	      3.60680235	      4.16556656	      5.73087098	      1.50486928	      5.61350487	      4.14121497	      2.91903798	      2.45382091	      3.98762471	      3.02335214	      2.23879824	      1.46180700	      3.65621804	      5.55622307	      4.14758334	     22.64800923	     12.96731228	      3.62681313	      2.85438224	      4.09040070	     58.41659920	     12.99120477	     13.66805890	     18.43856376	      0.00000000	      0.00000000	     11.63534286	     14.70336017	      2.59275644	      3.26182840	     12.68635716	      3.49378147	      7.38712178	      9.78484646	      8.50470855	      1.87379902	      7.54827484	      5.66597652	      6.06495805	      2.65903534	      3.17905414	      3.19287861	      8.74572411	      4.08340817	      7.68329487	      7.21629725	      1.51979984	      5.61350487	      4.14121497	      2.91903798	      2.45382091	      3.98762471	      4.09712488	      2.23879824	      1.55876134	      3.65621804	      5.55622307	      4.14758334	     22.64800923	     12.96731228	      3.62681313	      2.85438224	      4.09040070	     10.66776809	      6.59294902	      7.56264575	      8.13188589	     13.95519687	      6.47972130	     31.08973132	     42.36053072	      2.59809984	      2.84694248	      8.45224805	      4.33431953	     12.44747629	      2.00595574	      5.35546444	      1.70022183	     25.00752873	     25.00752873	      9.00051869	      9.00051869	     26.80507501	     26.80507501	    169.00979481	     92.69859572	     28.73191777	    -13.98280539	      4.21337298	     69.06342831	   -169.00979481	    -92.69859572	    -28.73191777	      3.16031230	     -5.69653052	     -0.61711111	    130.68068712	     16.97551878	    -10.71414312	      4.68783666	     -2.62338016	     53.12260957	   -130.68068712	    -16.97551878	     10.71414312	     -0.40846311	      2.26073891	     -1.50154689	   -128.83036315	    -57.81154955	      9.84489703	     -0.90708050	      1.90141878	     -0.69982421	    128.83036315	     57.81154955	     -9.84489703	      5.03882280	     -2.27601206	     52.56812129	      0.00000000	      0.00000000	      0.00000000	      0.00000000	      0.00000000	      0.00000000	      0.00000000	      0.00000000	      0.00000000	      0.00000000	      0.00000000	      0.00000000	     80.52168232	     18.93992264	    295.36864319	     57.00694230	      5.15686751	      1.44443846	      0.00000000	      0.00000000	      0.00000000	      0.00000000	      0.00000000	      0.00000000	      0.00000001	      0.00000000	     55.00000000	    -95.26270000	      0.00000000
      0.73169549	      7.54807500	      5.66583881	      6.06480881	      2.65897346	      3.17898721	      3.19279425	      0.00000000	      3.61263689	      4.18163619	      5.75498195	      1.51172667	      5.61336685	      4.14111946	      2.91896755	      2.45376030	      3.98751557	      3.02950668	      2.23874580	      1.46315183	      3.65612925	      5.55608774	      4.14748046	     22.64775957	     12.96703163	      3.62672688	      2.85434189	      4.09023840	     58.45157894	     13.00076231	     13.68444167	     18.47286138	      0.00000000	      0.00000000	     11.60618422	     14.83178915	      2.64498662	      3.22758065	     12.73306824	      3.50789010	      7.37596182	      9.80878699	      8.38734110	      1.89728327	      7.54807500	      5.66583881	      6.06480881	      2.65897346	      3.17898721	      3.19279425	      8.74543259	      4.08330110	      7.68305252	      7.21612555	      1.51976463	      5.61336685	      4.14111946	      2.91896755	      2.45376030	      3.98751557	      4.09705741	      2.23874580	      1.55872460	      3.65612925	      5.55608774	      4.14748046	     22.64775957	     12.96703163	      3.62672688	      2.85434189	      4.09023840	     10.66743831	      6.59278514	      7.56245413	      8.13168091	     13.95443154	      6.47936524	     31.08850158	     42.36005131	      2.59347871	      2.84476690	      8.45199999	      4.33417052	     12.44710793	      2.00591220	      5.35764132	      1.70082021	     25.00694537	     25.00694537	      9.00029003	      9.00029003	     26.80486962	     26.80486962	    169.31497848	     93.11401902	     29.83703855	    -14.45061420	      4.23316625	     69.18713410	   -169.31497848	    -93.11401902	    -29.83703855	      3.19791633	     -5.74590965	     -0.61102818	    130.51981013	     17.11467418	     -9.89023899	      4.35463008	     -2.60925138	     53.05504612	   -130.51981013	    -17.11467418	      9.89023899	     -0.39732277	      2.22641355	     -1.49361718	   -128.58141090	    -57.74771317	      9.64011864	     -0.90139331	      1.88996067	     -0.69664355	    128.58141090	     57.74771317	     -9.64011864	      4.95318260	     -2.26957141	     52.46604084	      0.00000000	      0.00000000	      0.00000000	      0.00000000	      0.00000000	      0.00000000	      0.00000000	      0.00000000	      0.00000000	      0.00000000	      0.00000000	      0.00000000	     80.33289937	     18.71005695	    295.00536849	     57.04159726	      5.22643538	      1.52072292	      0.00000000	      0.00000000	      0.00000000	      0.00000000	      0.00000000	      0.00000000	      0.00000001	      0.00000000	     55.00000000	    -95.26270000	      0.00000000
      0.73479246	      7.54797516	      5.66577001	      6.06473425	      2.65894254	      3.17895376	      3.19275210	      0.00000000	      3.61201612	      4.18870573	      5.74145479	      1.50083703	      5.61329789	      4.14107174	      2.91893237	      2.45373002	      3.98746104	      3.03318991	      2.23871960	      1.46112463	      3.65608489	      5.55602012	      4.14742906	     22.64763483	     12.96689141	      3.62668379	      2.85432174	      4.09015730	     58.44657448	     12.96118149	     13.65111699	     18.43895525	      0.00000000	      0.00000000	     11.59874432	     14.88671103	      2.67739390	      3.20930803	     12.75652540	      3.51666441	      7.37600504	      9.81289861	      8.30790603	      1.90539925	      7.54797516	      5.66577001	      6.06473425	      2.65894254	      3.17895376	      3.19275210	      8.74528694	      4.08324761	      7.68293143	      7.21603975	      1.51974704	      5.61329789	      4.14107174	      2.91893237	      2.45373002	      3.98746104	      4.09702369	      2.23871960	      1.55870625	      3.65608489	      5.55602012	      4.14742906	     22.64763483	     12.96689141	      3.62668379	      2.85432174	      4.09015730	     10.66727355	      6.59270327	      7.56235839	      8.13157849	     13.95404894	      6.47918724	     31.08788714	     42.35981177	      2.59101418	      2.84361329	      8.45187605	      4.33409606	     12.44692386	      2.00589044	      5.35880573	      1.70113947	     25.00665391	     25.00665391	      9.00017579	      9.00017579	     26.80476700	     26.80476700	    169.72883807	     93.09204929	     28.82471307	    -14.03030741	      4.23204058	     69.35901778	   -169.72883807	    -93.09204929	    -28.82471307	      3.17445778	     -5.72300183	     -0.62121703	    130.47214981	     16.91316020	    -10.85787665	      4.74521597	     -2.61938484	     53.03781119	   -130.47214981	    -16.91316020	     10.85787665	     -0.40958652	      2.25953991	     -1.49985422	   -127.60483864	    -57.25792081	      9.79630202	     -0.89855230	      1.88313003	     -0.69306472	    127.60483864	     57.25792081	     -9.79630202	      5.00935558	     -2.25466563	     52.06806648	      0.00000000	      0.00000000	      0.00000000	      0.00000000	      0.00000000	      0.00000000	      0.00000000	      0.00000000	      0.00000000	      0.00000000	      0.00000000	      0.00000000	     80.54385011	     18.98786884	    294.85681564	     56.73661797	      5.04825100	      1.31854605	      0.00000000	      0.00000000	      0.00000000	      0.00000000	      0.00000000	      0.00000000	      0.00000001	      0.00000000	     55.00000000	    -95.26270000	      0.00000000
